# xmcd CD database file
#
# Track frame offsets:
#	180
#	17959
#	34007
#	50334
#	64760
#	77025
#	85686
#	99790
#	118297
#	135898
#	149551
#
# Disc length: 2169 seconds
#
# Revision: 0
# Processed by: cddbd v1.5.2PL0 Copyright (c) Steve Scherf et al.
# Submitted via: CDex 1.50Beta7
#
DISCID=8a08770b
DTITLE=dom américo  - salça brasil 
DYEAR=1900
DGENRE=Salsa
TTITLE0=teleco teco 
TTITLE1=a fruta do meu quintal 
TTITLE2=eu também quero mocotó 
TTITLE3=zé piranha e zoófilo 
TTITLE4=sonífera ira 
TTITLE5=gata 
TTITLE6=a cabeluda 
TTITLE7=a tonga da mironga do kabuletê 
TTITLE8=cucarachatupiniquim 
TTITLE9=volume do som 
TTITLE10=beijo geladinho 
EXTD=
EXTT0=
EXTT1=
EXTT2=
EXTT3=
EXTT4=
EXTT5=
EXTT6=
EXTT7=
EXTT8=
EXTT9=
EXTT10=
PLAYORDER=
